<svg xmlns="http://www.w3.org/2000/svg" viewBox="0 0 1162.69 1092.89"><defs><style>.cls-1{fill:#d8b8b4;}.cls-2{fill:#ccaaa8;}.cls-3{fill:#e2c3ba;}.cls-4{fill:#683024;}.cls-5{fill:#b57d76;}.cls-6{fill:#d3b2ae;}.cls-7{fill:#af9190;}.cls-22,.cls-8{fill:none;stroke-miterlimit:10;}.cls-8{stroke:#af9190;stroke-width:2px;}.cls-9{fill:#c6a5a3;}.cls-10{fill:#ad8e8c;}.cls-11{fill:#3f150c;}.cls-12{fill:#2a120c;}.cls-13{fill:#efe3d8;}.cls-14{fill:#aa5959;}.cls-15{fill:#e5d9d6;}.cls-16{fill:#ce7c7c;}.cls-17{fill:#ccb2b0;}.cls-18{fill:#5b0f0d;}.cls-19{fill:#3d1511;}.cls-20{fill:#3a1813;}.cls-21{fill:#020000;}.cls-22{stroke:#5b0f0d;stroke-width:10px;}</style></defs><title>me_and_wiscbay</title><g id="Layer_4" data-name="Layer 4"><path class="cls-1" d="M798.92,784.94S793.15,841.42,736.57,899c-25.41,25.86-77.73,51.4-77.66,54.13C655.6,959,782.13,1061.07,836,1074.23s88.53,52.61,88.53,52.61l183-.48s75.73-66.49,82.55-109.56,16.25-130.29,4.28-166.18-18.74-28.2-35.49-29.4-63.49-2.05-84.6-16.13c-13.24-8.82-6.66-11.6-25.58,14.19-20.18,27.52-59.78,37.24-63.62,39.8-2.23,1.49-19.32,4.53-61.89-8.15-24.69-7.36-55.57-18.38-91.34-48.89C822.75,794.27,808.67,794.76,798.92,784.94Z" transform="translate(-41.32 -41.11)"/></g><g id="Layer_5" data-name="Layer 5"><path class="cls-2" d="M789.43,824.11s11,29.54,59.61,54.3,59.24,27.41,87.53,30.06,72.5,12.38,80.46,0,14.15-39.79,14.15-46.86-8.84-29.18-8.84-29.18l-57.73,29L863.79,838,795.1,775S804.11,789.68,789.43,824.11Z" transform="translate(-41.32 -41.11)"/></g><g id="Layer_2" data-name="Layer 2"><path class="cls-3" d="M852.93,253.4s53.79-25.12,108.86-14.12c42.79,8.55,73.69,51.92,73.69,51.92,72.27,61.75,89.27,217.51,94.94,221.72s9.92-30.87,9.92-30.87,23.13-3.48,23.13,17.57-7.54,79.26-20.29,100.3c0,0,19.09,95.67-48.33,172.07,0,0-67.88,77.72-73.54,81.93s-61.22,28-112.23,11.2C861.23,843,817.74,799.2,809,794c-39.64-23.31-77.22-127.79-77.22-127.79l-9.41-5-19.86-43.06s-7.09-57.54,8.5-95.43,29.76-44.9,29.76-67.35-11.34-44.91,4.25-94S838.57,262.61,852.93,253.4Z" transform="translate(-41.32 -41.11)"/></g><g id="Layer_7" data-name="Layer 7"><path class="cls-4" d="M846.28,717.51s37.59-6,52.11-4.89,128-23.75,132.27-24.14,4.89-2.12,10.93-.65c0,0,7,1.88,5.2,3.29s-21,19.06-23.63,21.83-29.52,34.57-33.6,35.88-39.31,5.54-45.5,5.22-38-1-43.88-2.77S867.73,734,867.73,734l-15.86-9s-9.42-4.26-7.22-7.26" transform="translate(-41.32 -41.11)"/><path class="cls-5" d="M874.19,716.57s137.6-15.49,144.12-17.57,1.52,10.7-.87,10.7-63.57,17.73-69.58,16.77-57.05-.8-63.35-1.44-17.81-5.9-16.08-6.7A44.54,44.54,0,0,1,874.19,716.57Z" transform="translate(-41.32 -41.11)"/><path class="cls-6" d="M1010.53,633.74s20.46,17.07,23.15,19.16c2.52,2,21.28,13.26,27.29,19.9,2.85,3.13,3.59,4.4,3.38,3.35s-.39-1.44-2.34-4.06c-4.49-6.06-27.65-26.11-33.09-29.73C1017.32,634.61,1008.43,631.84,1010.53,633.74Z" transform="translate(-41.32 -41.11)"/><path class="cls-6" d="M813.15,704.07s14.05-9.65,20.4-20.06c5-8.15,6.31-21.66,9.2-29.24" transform="translate(-41.32 -41.11)"/><path class="cls-7" d="M884.11,660.94s-5.35-6.07,7.25-1.68c6.3,2.2,8.65,5.92,10.81,7.3a4.42,4.42,0,0,1,1.34,2.74C903.26,670.45,895.24,669.19,884.11,660.94Z" transform="translate(-41.32 -41.11)"/><path class="cls-8" d="M868.65,640.9c-.82,22.88,14.16,10.88,29.2,22.17,9.32,7,7.41,12,27,13.35,35.45,2.42,28.68-28.78,47.52-26.42,9.75,1.22,14.56-18.59,14.56-18.59" transform="translate(-41.32 -41.11)"/><path class="cls-9" d="M859.13,480.81s23.42,18.26,26.6,32.65,1.7,38.52.7,49-3.88,29-6.37,23.66c-1.14-2.43,1.32-28.15.8-45.27s.31-20.85-2.36-26.79c-6.22-13.86-10.79-21.29-17.2-25.8s-9.25-5.31-9.11-6C852.61,480.25,853.28,482.15,859.13,480.81Z" transform="translate(-41.32 -41.11)"/><path class="cls-10" d="M836.74,501.88s-4.63-2.45-8.45-4.25c-9-4.23-31.26-2.66-41.68,3.16s-16,10.22-20,18.79c-2.37,5-2.12,12.49-1.21,11.59,3.73-3.73,9.44-16,14-19.66s24-19.62,53.44-8.58l10.75,7.83C842.26,507.37,836.74,501.88,836.74,501.88Z" transform="translate(-41.32 -41.11)"/><path class="cls-10" d="M989.69,476.35c3-2.87,25.29-9.78,43.56-6,7.27,1.51,18.67,7.72,23.09,14.68,2.82,4.46,2.21,7.32,1.21,6.62-4.87-3.38-8.44-7.61-13.22-10.35-13.11-7.49-37.69-9.55-46-5.62s-18,17.38-18,17.38C980.38,489.84,986.71,479.22,989.69,476.35Z" transform="translate(-41.32 -41.11)"/></g><g id="Layer_6" data-name="Layer 6"><path class="cls-11" d="M826.23,459.66s-24.12-12.74-33.68-7.28-37.77,15-40.5,20.93-15.47,19.11-15.47,19.11,10.92-13.19,20.48-14.56,21.84-2.73,33.67-6.14S824,468.3,826.23,459.66Z" transform="translate(-41.32 -41.11)"/><path class="cls-11" d="M961.84,435s14.56-20.94,32.76-20.94,31.4,2.73,39.14,3.19,10,9.55,17.75,10.92,10,6.83,10,6.83-15.47-5.47-22.3-5-23.21,2.28-27.53,5-23,8.19-31.63,6.37A96.38,96.38,0,0,1,961.84,435Z" transform="translate(-41.32 -41.11)"/><path class="cls-12" d="M980.52,494.85c-1.47-.81,8.76-20.69,27.1-21.13,24.11-.58,28.55,2.32,35.08,6.52A158.67,158.67,0,0,1,1059.11,493s5.13,3.8-.89,1.81c-9.22-3-9.94-8.64-20.11-12.49s-20-7.31-31.54-6.38C991.06,477.22,982,495.67,980.52,494.85Z" transform="translate(-41.32 -41.11)"/><path class="cls-13" d="M869,721.53s9.67,16.84,10.92,17.74,3.82,5.34,3.82,5.34,7.44,8.27,10.65,4.41l3.22-3.85,2-.56s2.41,6.91,6.79,7.14c.9,0,5.9-.68,7,0s7-4.09,7-4.09,3.75,8.4,6.25,9.76,10.6-.68,12.09-1.36,10.25-5,10.25-5,3.75,2.72,5,2.72,14.83-.68,17.51-2.72S997.12,737,997.66,735a21.05,21.05,0,0,1,2.32-4.79l4.29.94s6.07-1.47,7.32-10.26,2.68-4.93,2.68-4.93,5.19.9,6.61-5.45a151.1,151.1,0,0,1,5-15c3-7.35,0-6.82,0-6.82s-10.9-2.47-11.79,4.56c0,0-4.47-3.85-7.87,3.18,0,0-4.71,2-7.68,11.57-1.18,3.83-3-6.42-5.78-5.7-7.49,2-8.07,2.78-14.15,8.9-3.1,3.13-9.84-.13-14.14-.61-13.1-1.46-14.31,12.15-15.78,12.15-2.68,0-4.58-6.8-4.58-6.8a25.33,25.33,0,0,0-12.75-1.19c-3.42.67-11.35,2.68-12.15,5.95-2.32,9.52-5.9-3.41-5.9-3.41s-12.33-7-18.94,3.41c0,0-1.74-5.48-7-5.67C862.61,714.11,869,721.53,869,721.53Z" transform="translate(-41.32 -41.11)"/><path class="cls-14" d="M844.65,717.75a98,98,0,0,0,16.43-1.23c11.06-1.64,24.43-2,31.72-1.12,12.78,1.55,50.07.36,57.81-1s37.1-7.68,47.51-12.48a230.68,230.68,0,0,1,28.79-11.43c10.14-3.2,8.91-3.22,8.91-3.22s-20.35-.74-33.7,3.48-32,10.1-38.43,10.1-14.15,6.41-31,5.87S844.65,717.75,844.65,717.75Z" transform="translate(-41.32 -41.11)"/><path class="cls-15" d="M792.58,505.25a102.18,102.18,0,0,0-17.93,14.29c-1.54,1.56-7.3,8,0,10.09,3.41,1,9,5.57,20.51,3.92,2.21-.31,4.29-.56,5.34-1.6C807,525.45,792.58,505.25,792.58,505.25Z" transform="translate(-41.32 -41.11)"/><path class="cls-15" d="M815.54,501.88a47.32,47.32,0,0,1,21.81,6.73c1.86,1.17,8.28,7.47,1.65,11.2-3.1,1.74-7.84,7.59-19.5,8.17S815.54,501.88,815.54,501.88Z" transform="translate(-41.32 -41.11)"/><path class="cls-15" d="M1000.91,476.65A99.55,99.55,0,0,0,983.83,492c-1.47,1.68-7,8.55,0,10.83,3.24,1.07,7.46,3.71,19.59,4.51C1014.56,508.08,1000.91,476.65,1000.91,476.65Z" transform="translate(-41.32 -41.11)"/><path class="cls-15" d="M1020.09,476.35a42.77,42.77,0,0,1,22.17,8.4c2,1.46,13.8,7.17,7.09,11.34-3.13,2-14,8.37-25.57,10.44a16.65,16.65,0,0,1-3.94.39C1010.86,503.82,1020.09,476.35,1020.09,476.35Z" transform="translate(-41.32 -41.11)"/><path class="cls-16" d="M844.88,720.66c.55,1.49,34.72,27.15,51.53,45.55,13.62,14.9,54.48,16.39,64.88,14.09,7.12-1.58,25.22-4.47,41.2-28.53s25.43-38.6,33.42-47.32,10.88-13.33,10.88-13.33S1009,719.24,996,733.32s-24,17.44-40,18.17-45.77,2.36-58.85-6.36-39.23-18.76-39.23-18.76-11.22-6.4-13.09-6.27C844.64,720.11,844.8,720.45,844.88,720.66Z" transform="translate(-41.32 -41.11)"/><path class="cls-12" d="M762.38,537.54S768.15,526,781.6,513.7c24.91-22.77,52.06-6.91,60.18-2.86s-13.15-19-42.64-10.29c-11.86,3.5-15,5.54-22.6,13.94C767.77,524.14,762.38,537.54,762.38,537.54Z" transform="translate(-41.32 -41.11)"/><path class="cls-6" d="M980.41,517c-.75.93,12.48,14.81,51.56,7.76,0,0,16.45-3.39,16.15-5.35s-15,5.18-34,5.52C989.11,525.4,981.17,516.07,980.41,517Z" transform="translate(-41.32 -41.11)"/><path class="cls-12" d="M986.49,504.39c-.57.57,13.23,5.81,29.15,4.74,9.34-.62,20.79-3.54,33.19-10.42,0,0,3.79-2.09,3.42-3.8s-13.72,10.91-36.26,12.66c-11.79.91-18.71-.43-23.14-1.42C986.61,504.76,987,503.9,986.49,504.39Z" transform="translate(-41.32 -41.11)"/><path class="cls-12" d="M838.66,520.86c.74.41-10.18,8.54-26.54,12.18-9.6,2.14-22,2.59-36.52-.68,0,0-4.44-1-4.57-2.81s17.05,6.93,40.27,2c12.15-2.57,18.8-5.85,22.9-8.28C837.7,521.23,838,520.51,838.66,520.86Z" transform="translate(-41.32 -41.11)"/><path class="cls-17" d="M787.15,549.66s27.55,5.66,47.79-7.38l7.11-6.59c.38-.36,1.21-.56,1.38-.06,0,0,.1-1.14-1.67,3.51,0,0-4.15,4.9-12.54,8.6s-13.41,4.92-22.84,5.25c-10.18.34-14.16.06-19.44-1.64C781,549.43,787.15,549.66,787.15,549.66Z" transform="translate(-41.32 -41.11)"/></g><g id="Layer_9" data-name="Layer 9"><path class="cls-18" d="M677.13,942.18l9-5.74s-27.34,3.89-39.23,11.37c0,0-22.06,17.17-24,18.05s-31.9,26.42-35,26.42-26.42,5.29-26.42,14.53-4,20.7-10.13,21.14-24.65,1.32-30.82,18.49-15.85,42.71-15.85,42.71-9.69,33.9-9.25,37.87,701.18,2,701.18,2l-2.32-142.48s.6,37.05-20.59,66.49c-16.7,23.19-36.8,43.11-46.87,54.19-7.27,8-19.3,19.16-19.3,19.16l-1.77,1-180.1,1.44s-4.08-6.33-14.57-14.74-26.21-21.22-49.82-31.3-35.2-11.64-53.93-20.32c-20.14-9.33-97.9-67.41-104.21-72.49s-42.89-30.82-43.43-35.28,2.35-3.32,9.15-7.36C676.8,942.55,677.13,942.18,677.13,942.18Z" transform="translate(-41.32 -41.11)"/><path class="cls-18" d="M1132.1,819.46s19.77-6.84,35-7.72c14.61-.84,27.82-1.09,29.53,3.79,2,5.59,0,25.68,0,25.68l-1.47,13.9s-4.65-23.2-15.47-30.11c-7.11-4.53-10.47-3.09-20.8-3.78Z" transform="translate(-41.32 -41.11)"/></g><g id="Layer_3" data-name="Layer 3"><path class="cls-19" d="M944.29,246S834.91,263.1,792.7,310.42c-54.39,61-55.4,85.4-52.6,106.45S752,550.38,752,554.59s-7,73-25.26,101-35.09,43.5-35.09,43.5,25.26-18.24,35.09-64.55,18.24-28.07,9.82-70.17-9-43.9-14.61-56.53-20.47,84.6-7.84,105.65-5.62,67.36,15.43,101-18.24-15.44-18.24-15.44l-12.09-41.47-8.07-17.86s-3,29.41-1.5,47.45,15,23.2,9.57,23.2-20.81-27.61-28.66-42.51S658,617.74,658,617.74s-42.1-67.36-25.26-105.25,9.82-36.48,9.82-65.95S628,380.9,647.65,336s49.86-102.75,131.84-147.66,82-40.69,125.47-33.67,60.35,22.45,67.36,25.25,77.18-15.43,109.46,22.46,56.13,88.4,60.34,136.12S1152.57,425,1159,438.33c27.35,57.08,7.75,43,7,77-.3,14-11.22,42.1-11.22,50.52s2.12-109.7-8.42-70.17c-5.61,21.05-21,9.83-15.44,49.12s-5.61-18.24-12.63-61.75-4.43-11.63-30.87-81.39c-35.55-93.79-25.8-84.8-53.32-109.45C980.67,244.34,944.29,246,944.29,246Z" transform="translate(-41.32 -41.11)"/><path class="cls-20" d="M788.94,509.91c-2.67,3.39-1.83,17.29,6.39,21.16,0,0,17.18,6.47,31.57-5.39,0,0,8.64-7.47,0-22C826.9,503.69,803.5,491.5,788.94,509.91Z" transform="translate(-41.32 -41.11)"/><path class="cls-20" d="M990.93,485.32s-4.41,11.87,9.84,21.37c0,0,18.32,5.77,27.48-5.43,0,0,5.57-9.24,1.35-19.33C1025.59,472.33,998.32,469.46,990.93,485.32Z" transform="translate(-41.32 -41.11)"/><circle class="cls-21" cx="768.61" cy="473.4" r="7.86"/><circle class="cls-21" cx="969.58" cy="448.62" r="7.49"/><rect class="cls-22" x="5" y="5" width="1152.69" height="1082.89"/></g></svg>